<mxfile host="app.diagrams.net" agent="Mozilla/5.0 (Macintosh; Intel Mac OS X 10_15_7) AppleWebKit/537.36 (KHTML, like Gecko) Chrome/140.0.0.0 Safari/537.36" version="28.2.5">
  <diagram name="CS 520 Diagram" id="AZLDHBLHqBosx17-2J2p">
    <mxGraphModel dx="885" dy="599" grid="1" gridSize="10" guides="1" tooltips="1" connect="1" arrows="1" fold="1" page="1" pageScale="1" pageWidth="850" pageHeight="1100" math="0" shadow="0">
      <root>
        <mxCell id="2DXD-i9d-5MjklXYxEC3-0" />
        <mxCell id="2DXD-i9d-5MjklXYxEC3-1" parent="2DXD-i9d-5MjklXYxEC3-0" />
        <mxCell id="crPRmXqL6RGYwfUQ0pt--3" style="edgeStyle=orthogonalEdgeStyle;rounded=0;orthogonalLoop=1;jettySize=auto;html=1;entryX=0;entryY=0.5;entryDx=0;entryDy=0;" edge="1" parent="2DXD-i9d-5MjklXYxEC3-1" source="crPRmXqL6RGYwfUQ0pt--0" target="crPRmXqL6RGYwfUQ0pt--1">
          <mxGeometry relative="1" as="geometry" />
        </mxCell>
        <mxCell id="crPRmXqL6RGYwfUQ0pt--0" value="Web Client" style="rounded=0;whiteSpace=wrap;html=1;" vertex="1" parent="2DXD-i9d-5MjklXYxEC3-1">
          <mxGeometry x="120" y="280" width="120" height="60" as="geometry" />
        </mxCell>
        <mxCell id="crPRmXqL6RGYwfUQ0pt--4" style="edgeStyle=orthogonalEdgeStyle;rounded=0;orthogonalLoop=1;jettySize=auto;html=1;entryX=1;entryY=0.5;entryDx=0;entryDy=0;" edge="1" parent="2DXD-i9d-5MjklXYxEC3-1" source="crPRmXqL6RGYwfUQ0pt--1" target="crPRmXqL6RGYwfUQ0pt--0">
          <mxGeometry relative="1" as="geometry" />
        </mxCell>
        <mxCell id="crPRmXqL6RGYwfUQ0pt--5" style="edgeStyle=orthogonalEdgeStyle;rounded=0;orthogonalLoop=1;jettySize=auto;html=1;entryX=0.5;entryY=1;entryDx=0;entryDy=0;" edge="1" parent="2DXD-i9d-5MjklXYxEC3-1" source="crPRmXqL6RGYwfUQ0pt--1" target="crPRmXqL6RGYwfUQ0pt--2">
          <mxGeometry relative="1" as="geometry" />
        </mxCell>
        <mxCell id="crPRmXqL6RGYwfUQ0pt--7" style="edgeStyle=orthogonalEdgeStyle;rounded=0;orthogonalLoop=1;jettySize=auto;html=1;entryX=0;entryY=0.5;entryDx=0;entryDy=0;" edge="1" parent="2DXD-i9d-5MjklXYxEC3-1" source="crPRmXqL6RGYwfUQ0pt--1" target="crPRmXqL6RGYwfUQ0pt--6">
          <mxGeometry relative="1" as="geometry" />
        </mxCell>
        <mxCell id="crPRmXqL6RGYwfUQ0pt--8" style="edgeStyle=orthogonalEdgeStyle;rounded=0;orthogonalLoop=1;jettySize=auto;html=1;" edge="1" parent="2DXD-i9d-5MjklXYxEC3-1" source="crPRmXqL6RGYwfUQ0pt--1">
          <mxGeometry relative="1" as="geometry">
            <mxPoint x="380" y="420" as="targetPoint" />
          </mxGeometry>
        </mxCell>
        <mxCell id="crPRmXqL6RGYwfUQ0pt--19" style="edgeStyle=orthogonalEdgeStyle;rounded=0;orthogonalLoop=1;jettySize=auto;html=1;exitX=0.25;exitY=1;exitDx=0;exitDy=0;entryX=0.5;entryY=0;entryDx=0;entryDy=0;" edge="1" parent="2DXD-i9d-5MjklXYxEC3-1" source="crPRmXqL6RGYwfUQ0pt--1" target="crPRmXqL6RGYwfUQ0pt--16">
          <mxGeometry relative="1" as="geometry" />
        </mxCell>
        <mxCell id="crPRmXqL6RGYwfUQ0pt--24" style="edgeStyle=orthogonalEdgeStyle;rounded=0;orthogonalLoop=1;jettySize=auto;html=1;exitX=0.75;exitY=1;exitDx=0;exitDy=0;entryX=0.5;entryY=0;entryDx=0;entryDy=0;" edge="1" parent="2DXD-i9d-5MjklXYxEC3-1" source="crPRmXqL6RGYwfUQ0pt--1" target="crPRmXqL6RGYwfUQ0pt--23">
          <mxGeometry relative="1" as="geometry" />
        </mxCell>
        <mxCell id="crPRmXqL6RGYwfUQ0pt--1" value="Backend/ Gateway" style="rounded=0;whiteSpace=wrap;html=1;" vertex="1" parent="2DXD-i9d-5MjklXYxEC3-1">
          <mxGeometry x="320" y="280" width="120" height="60" as="geometry" />
        </mxCell>
        <mxCell id="crPRmXqL6RGYwfUQ0pt--14" style="edgeStyle=orthogonalEdgeStyle;rounded=0;orthogonalLoop=1;jettySize=auto;html=1;" edge="1" parent="2DXD-i9d-5MjklXYxEC3-1" source="crPRmXqL6RGYwfUQ0pt--2">
          <mxGeometry relative="1" as="geometry">
            <mxPoint x="380" y="80" as="targetPoint" />
          </mxGeometry>
        </mxCell>
        <mxCell id="crPRmXqL6RGYwfUQ0pt--2" value="Authentication Service &lt;br&gt;(Email, pw, jwt)" style="rounded=0;whiteSpace=wrap;html=1;" vertex="1" parent="2DXD-i9d-5MjklXYxEC3-1">
          <mxGeometry x="320" y="140" width="120" height="60" as="geometry" />
        </mxCell>
        <mxCell id="crPRmXqL6RGYwfUQ0pt--13" style="edgeStyle=orthogonalEdgeStyle;rounded=0;orthogonalLoop=1;jettySize=auto;html=1;entryX=0;entryY=0.5;entryDx=0;entryDy=0;" edge="1" parent="2DXD-i9d-5MjklXYxEC3-1" source="crPRmXqL6RGYwfUQ0pt--6" target="crPRmXqL6RGYwfUQ0pt--12">
          <mxGeometry relative="1" as="geometry" />
        </mxCell>
        <mxCell id="crPRmXqL6RGYwfUQ0pt--22" style="edgeStyle=orthogonalEdgeStyle;rounded=0;orthogonalLoop=1;jettySize=auto;html=1;entryX=0.5;entryY=1;entryDx=0;entryDy=0;" edge="1" parent="2DXD-i9d-5MjklXYxEC3-1" source="crPRmXqL6RGYwfUQ0pt--6" target="crPRmXqL6RGYwfUQ0pt--20">
          <mxGeometry relative="1" as="geometry" />
        </mxCell>
        <mxCell id="crPRmXqL6RGYwfUQ0pt--6" value="Document Service (PDF Parser, signed URLs)" style="rounded=0;whiteSpace=wrap;html=1;" vertex="1" parent="2DXD-i9d-5MjklXYxEC3-1">
          <mxGeometry x="520" y="280" width="120" height="60" as="geometry" />
        </mxCell>
        <mxCell id="crPRmXqL6RGYwfUQ0pt--10" style="edgeStyle=orthogonalEdgeStyle;rounded=0;orthogonalLoop=1;jettySize=auto;html=1;" edge="1" parent="2DXD-i9d-5MjklXYxEC3-1" source="crPRmXqL6RGYwfUQ0pt--9">
          <mxGeometry relative="1" as="geometry">
            <mxPoint x="380" y="560" as="targetPoint" />
          </mxGeometry>
        </mxCell>
        <mxCell id="crPRmXqL6RGYwfUQ0pt--9" value="Note Service&lt;div&gt;(Markdown save/load, linking)&amp;nbsp;&lt;/div&gt;" style="rounded=0;whiteSpace=wrap;html=1;" vertex="1" parent="2DXD-i9d-5MjklXYxEC3-1">
          <mxGeometry x="320" y="420" width="120" height="60" as="geometry" />
        </mxCell>
        <mxCell id="crPRmXqL6RGYwfUQ0pt--11" value="Note DB" style="rounded=0;whiteSpace=wrap;html=1;" vertex="1" parent="2DXD-i9d-5MjklXYxEC3-1">
          <mxGeometry x="320" y="550" width="120" height="60" as="geometry" />
        </mxCell>
        <mxCell id="crPRmXqL6RGYwfUQ0pt--12" value="Document Metadata DB" style="rounded=0;whiteSpace=wrap;html=1;" vertex="1" parent="2DXD-i9d-5MjklXYxEC3-1">
          <mxGeometry x="720" y="280" width="120" height="60" as="geometry" />
        </mxCell>
        <mxCell id="crPRmXqL6RGYwfUQ0pt--15" value="Auth DB" style="rounded=0;whiteSpace=wrap;html=1;" vertex="1" parent="2DXD-i9d-5MjklXYxEC3-1">
          <mxGeometry x="320" y="20" width="120" height="60" as="geometry" />
        </mxCell>
        <mxCell id="crPRmXqL6RGYwfUQ0pt--18" style="edgeStyle=orthogonalEdgeStyle;rounded=0;orthogonalLoop=1;jettySize=auto;html=1;entryX=0.5;entryY=0;entryDx=0;entryDy=0;" edge="1" parent="2DXD-i9d-5MjklXYxEC3-1" source="crPRmXqL6RGYwfUQ0pt--16" target="crPRmXqL6RGYwfUQ0pt--17">
          <mxGeometry relative="1" as="geometry" />
        </mxCell>
        <mxCell id="crPRmXqL6RGYwfUQ0pt--16" value="Search Service" style="rounded=0;whiteSpace=wrap;html=1;" vertex="1" parent="2DXD-i9d-5MjklXYxEC3-1">
          <mxGeometry x="120" y="420" width="120" height="60" as="geometry" />
        </mxCell>
        <mxCell id="crPRmXqL6RGYwfUQ0pt--17" value="Search DB" style="rounded=0;whiteSpace=wrap;html=1;" vertex="1" parent="2DXD-i9d-5MjklXYxEC3-1">
          <mxGeometry x="120" y="550" width="120" height="60" as="geometry" />
        </mxCell>
        <mxCell id="crPRmXqL6RGYwfUQ0pt--20" value="Google Cloud Storage" style="rounded=0;whiteSpace=wrap;html=1;" vertex="1" parent="2DXD-i9d-5MjklXYxEC3-1">
          <mxGeometry x="520" y="140" width="120" height="60" as="geometry" />
        </mxCell>
        <mxCell id="crPRmXqL6RGYwfUQ0pt--26" style="edgeStyle=orthogonalEdgeStyle;rounded=0;orthogonalLoop=1;jettySize=auto;html=1;entryX=0;entryY=0.5;entryDx=0;entryDy=0;" edge="1" parent="2DXD-i9d-5MjklXYxEC3-1" source="crPRmXqL6RGYwfUQ0pt--23" target="crPRmXqL6RGYwfUQ0pt--25">
          <mxGeometry relative="1" as="geometry" />
        </mxCell>
        <mxCell id="crPRmXqL6RGYwfUQ0pt--23" value="LLM Service&lt;div&gt;(Summary, quiz, flashcards, chat)&amp;nbsp;&lt;/div&gt;" style="rounded=0;whiteSpace=wrap;html=1;" vertex="1" parent="2DXD-i9d-5MjklXYxEC3-1">
          <mxGeometry x="520" y="420" width="120" height="60" as="geometry" />
        </mxCell>
        <mxCell id="crPRmXqL6RGYwfUQ0pt--25" value="LLM" style="rounded=0;whiteSpace=wrap;html=1;" vertex="1" parent="2DXD-i9d-5MjklXYxEC3-1">
          <mxGeometry x="720" y="420" width="120" height="60" as="geometry" />
        </mxCell>
        <mxCell id="crPRmXqL6RGYwfUQ0pt--28" value="Summary DB" style="rounded=0;whiteSpace=wrap;html=1;" vertex="1" parent="2DXD-i9d-5MjklXYxEC3-1">
          <mxGeometry x="520" y="550" width="120" height="60" as="geometry" />
        </mxCell>
        <mxCell id="crPRmXqL6RGYwfUQ0pt--30" value="Quiz DB" style="rounded=0;whiteSpace=wrap;html=1;" vertex="1" parent="2DXD-i9d-5MjklXYxEC3-1">
          <mxGeometry x="720" y="550" width="120" height="60" as="geometry" />
        </mxCell>
        <mxCell id="crPRmXqL6RGYwfUQ0pt--31" value="Flashcards DB" style="rounded=0;whiteSpace=wrap;html=1;" vertex="1" parent="2DXD-i9d-5MjklXYxEC3-1">
          <mxGeometry x="520" y="670" width="120" height="60" as="geometry" />
        </mxCell>
        <mxCell id="crPRmXqL6RGYwfUQ0pt--32" value="Chat DB" style="rounded=0;whiteSpace=wrap;html=1;" vertex="1" parent="2DXD-i9d-5MjklXYxEC3-1">
          <mxGeometry x="720" y="670" width="120" height="60" as="geometry" />
        </mxCell>
        <mxCell id="crPRmXqL6RGYwfUQ0pt--35" value="" style="endArrow=none;html=1;rounded=0;" edge="1" parent="2DXD-i9d-5MjklXYxEC3-1">
          <mxGeometry width="50" height="50" relative="1" as="geometry">
            <mxPoint x="680" y="450" as="sourcePoint" />
            <mxPoint x="640" y="450" as="targetPoint" />
          </mxGeometry>
        </mxCell>
        <mxCell id="crPRmXqL6RGYwfUQ0pt--36" value="" style="endArrow=none;html=1;rounded=0;" edge="1" parent="2DXD-i9d-5MjklXYxEC3-1">
          <mxGeometry width="50" height="50" relative="1" as="geometry">
            <mxPoint x="680" y="700" as="sourcePoint" />
            <mxPoint x="680" y="450" as="targetPoint" />
          </mxGeometry>
        </mxCell>
        <mxCell id="crPRmXqL6RGYwfUQ0pt--40" value="" style="endArrow=classic;html=1;rounded=0;" edge="1" parent="2DXD-i9d-5MjklXYxEC3-1">
          <mxGeometry width="50" height="50" relative="1" as="geometry">
            <mxPoint x="680" y="699.67" as="sourcePoint" />
            <mxPoint x="640" y="699.67" as="targetPoint" />
          </mxGeometry>
        </mxCell>
        <mxCell id="crPRmXqL6RGYwfUQ0pt--41" value="" style="endArrow=classic;html=1;rounded=0;" edge="1" parent="2DXD-i9d-5MjklXYxEC3-1">
          <mxGeometry width="50" height="50" relative="1" as="geometry">
            <mxPoint x="680" y="579.67" as="sourcePoint" />
            <mxPoint x="640" y="579.67" as="targetPoint" />
          </mxGeometry>
        </mxCell>
        <mxCell id="crPRmXqL6RGYwfUQ0pt--42" value="" style="endArrow=classic;html=1;rounded=0;entryX=0;entryY=0.5;entryDx=0;entryDy=0;" edge="1" parent="2DXD-i9d-5MjklXYxEC3-1" target="crPRmXqL6RGYwfUQ0pt--30">
          <mxGeometry width="50" height="50" relative="1" as="geometry">
            <mxPoint x="680" y="580" as="sourcePoint" />
            <mxPoint x="700" y="600" as="targetPoint" />
          </mxGeometry>
        </mxCell>
        <mxCell id="crPRmXqL6RGYwfUQ0pt--43" value="" style="endArrow=classic;html=1;rounded=0;entryX=0;entryY=0.5;entryDx=0;entryDy=0;" edge="1" parent="2DXD-i9d-5MjklXYxEC3-1">
          <mxGeometry width="50" height="50" relative="1" as="geometry">
            <mxPoint x="680" y="700" as="sourcePoint" />
            <mxPoint x="720" y="700" as="targetPoint" />
          </mxGeometry>
        </mxCell>
      </root>
    </mxGraphModel>
  </diagram>
</mxfile>
